<?xml version="1.0" encoding="iso-8859-1"?>
<!-- Generator: Adobe Illustrator 18.1.1, SVG Export Plug-In . SVG Version: 6.00 Build 0)  -->
<svg version="1.1" id="Capa_1" xmlns="http://www.w3.org/2000/svg" xmlns:xlink="http://www.w3.org/1999/xlink" x="0px" y="0px"
	 viewBox="0 0 612 612" style="enable-background:new 0 0 612 612;" xml:space="preserve">
<g>
	<path d="M612,565.748c0,8.643-7.006,15.646-15.646,15.646H15.646C7.006,581.394,0,574.391,0,565.748s7.006-15.646,15.646-15.646
		h580.708C604.994,550.102,612,557.105,612,565.748z M580.004,283.491l-132.403-51.745l-0.013-0.016l-157.427-61.523l0.003,0.013
		l-161.248-63.016l-14.282-40.395c-5.698-16.106-18.09-28.911-33.999-35.132c-4.688-1.831-9.973-1.295-14.197,1.439
		s-6.878,7.338-7.125,12.363l-4.362,88.431l-39.594,24.689c-5.022,3.132-7.848,8.831-7.3,14.723
		c0.548,5.892,4.371,10.974,9.885,13.127l20.199,7.892c2.525,0.983,5.257,1.295,7.939,0.911l51.813-7.504l159.323,62.265
		L155.146,369.097c-3.298,3.846-4.528,9.059-3.301,13.975c1.227,4.916,4.763,8.934,9.485,10.78l44.885,17.539
		c1.834,0.717,3.764,1.073,5.695,1.073c2.3,0,4.597-0.507,6.718-1.514l203.16-96.617l127.675,49.895
		c5.038,1.968,10.323,2.966,15.702,2.966c18.885,0,35.423-12.113,41.152-30.137C613.186,315.472,601.627,291.94,580.004,283.491z
		 M286.018,151.792l144.025,56.285L339.85,86.486c-1.752-2.363-4.131-4.181-6.869-5.254l-41.468-16.209
		c-5.401-2.112-11.503-1.064-15.893,2.704c-4.39,3.771-6.34,9.657-5.069,15.305L286.018,151.792z M164.9,223.426
		c-8.64,0-15.646,7.003-15.646,15.646v0.973c0,8.643,7.006,15.646,15.646,15.646c8.64,0,15.646-7.003,15.646-15.646v-0.973
		C180.546,230.429,173.539,223.426,164.9,223.426z M212.097,244.88c-8.64,0-15.646,7.003-15.646,15.646v0.973
		c0,8.643,7.006,15.646,15.646,15.646c8.64,0,15.646-7.003,15.646-15.646v-0.973C227.743,251.883,220.74,244.88,212.097,244.88z
		 M459.567,338.756c-8.64,0-15.646,7.003-15.646,15.646v0.973c0,8.643,7.006,15.646,15.646,15.646s15.646-7.003,15.646-15.646
		v-0.973C475.213,345.759,468.207,338.756,459.567,338.756z"/>
</g>
<g>
</g>
<g>
</g>
<g>
</g>
<g>
</g>
<g>
</g>
<g>
</g>
<g>
</g>
<g>
</g>
<g>
</g>
<g>
</g>
<g>
</g>
<g>
</g>
<g>
</g>
<g>
</g>
<g>
</g>
</svg>
